<svg width="75" height="21" viewBox="0 0 75 21" fill="none" xmlns="http://www.w3.org/2000/svg">
<g clip-path="url(#clip0_90_7)">
<path d="M17.6732 14.3965L17.6625 14.362L24.3098 8.06038V5.02421H13.6454V8.06038H20.0154L20.0258 8.08945L13.4434 14.3965V17.4326H24.4169V14.3968L17.6732 14.3965ZM30.964 4.73531C29.734 4.73531 28.7315 4.92711 27.9567 5.31162C27.2349 5.64647 26.6269 6.19817 26.2115 6.89518C25.8142 7.59668 25.5646 8.37728 25.4793 9.18572L28.715 9.65684C28.8322 8.94267 29.0663 8.4368 29.4174 8.1386C29.8166 7.82677 30.3085 7.66924 30.808 7.69326C31.4647 7.69326 31.9411 7.87488 32.2372 8.2387C32.5306 8.60223 32.6797 9.10571 32.6797 9.76952V10.1004H29.5685C27.9848 10.1004 26.8471 10.4639 26.1551 11.1913C25.4634 11.9183 25.1181 12.8785 25.1193 14.0713C25.1193 15.2928 25.4645 16.2021 26.1554 16.7985C26.8459 17.3946 27.7145 17.691 28.7607 17.6874C30.0587 17.6874 31.0575 17.2249 31.7562 16.2998C32.1688 15.7315 32.4635 15.0811 32.6218 14.3893H32.7393L33.1853 17.4254H36.1174V9.73656C36.1174 8.14759 35.7131 6.91676 34.9041 6.04436C34.0955 5.17136 32.7819 4.73501 30.964 4.73501V4.73531ZM31.9897 14.2127C31.5243 14.6146 30.9151 14.8145 30.1566 14.8145C29.5314 14.8145 29.0973 14.7012 28.8539 14.4747C28.7353 14.3675 28.6409 14.2345 28.5775 14.0853C28.5141 13.9361 28.4831 13.7743 28.4869 13.6113C28.48 13.4575 28.5034 13.3039 28.5556 13.1598C28.6079 13.0157 28.6879 12.8841 28.7908 12.773C28.902 12.6649 29.0333 12.5813 29.1766 12.5272C29.3199 12.4732 29.4723 12.4497 29.6246 12.4584H32.6849V12.6675C32.6911 12.9631 32.6316 13.2561 32.5111 13.5241C32.3905 13.7921 32.2122 14.0275 31.9897 14.2127ZM53.847 5.02421H50.383V17.4344H53.847V5.02421ZM74.2998 5.02421C73.3212 5.02421 72.5499 5.38174 71.9859 6.09711C71.581 6.61078 71.273 7.37019 71.0623 8.37476H70.9605L70.5075 5.02421H67.5491V17.4326H71.0134V11.0693C71.0134 10.267 71.1946 9.65174 71.5575 9.22408C71.9205 8.79613 72.5899 8.58215 73.5661 8.58215H74.8809V5.02421H74.2998ZM64.1111 5.42969C63.3025 4.93161 62.2823 4.68316 61.0512 4.68436C59.1126 4.68436 57.5955 5.25557 56.5001 6.3986C55.4044 7.54162 54.8568 9.1174 54.8568 11.1259C54.8288 12.3401 55.0848 13.5433 55.6029 14.6329C56.0771 15.6039 56.8156 16.4098 57.7272 16.951C58.6449 17.5001 59.7363 17.7752 61.002 17.7764C62.0962 17.7764 63.0105 17.602 63.7442 17.2528C64.4342 16.9393 65.0352 16.4478 65.4896 15.8254C65.9222 15.2145 66.2434 14.5269 66.4375 13.7965L63.453 12.9313C63.3272 13.4062 63.0852 13.8395 62.7506 14.1894C62.4134 14.5382 61.8485 14.7129 61.0564 14.7129C60.114 14.7129 59.4116 14.4336 58.9494 13.8747C58.6137 13.471 58.4033 12.8947 58.3104 12.1476H66.4832C66.5168 11.7984 66.5341 11.5056 66.5341 11.2695V10.4966C66.5538 9.4586 66.3469 8.42942 65.9287 7.48588C65.5368 6.62643 64.9033 5.9097 64.1111 5.42969ZM60.951 7.64231C62.3555 7.64231 63.1517 8.35798 63.3404 9.7896H58.3717C58.4505 9.31187 58.6416 8.86157 58.9283 8.47845C59.3835 7.91983 60.0579 7.64112 60.951 7.64231ZM52.1528 0.0226651C51.8922 0.0134209 51.6324 0.0585353 51.389 0.155326C51.1456 0.252116 50.9234 0.398606 50.7358 0.586085C50.551 0.775571 50.4061 1.00267 50.3103 1.25305C50.2145 1.50343 50.1699 1.77165 50.1792 2.04079C50.1698 2.31167 50.2144 2.58165 50.3104 2.83386C50.4063 3.08607 50.5514 3.31508 50.7366 3.50658C50.9218 3.69822 51.1431 3.84826 51.3867 3.94732C51.6304 4.04638 51.8912 4.09232 52.1528 4.08228C52.4127 4.09242 52.6718 4.04641 52.9136 3.94719C53.1554 3.84797 53.3746 3.69771 53.5573 3.50598C53.7386 3.3123 53.8802 3.08261 53.9735 2.83074C54.0667 2.57887 54.1098 2.31005 54.1 2.04049C54.1121 1.77261 54.07 1.50507 53.9765 1.25499C53.883 1.00491 53.7401 0.777793 53.557 0.588182C53.3739 0.398413 53.1546 0.250265 52.9132 0.153202C52.6717 0.056138 52.4133 0.0122918 52.1545 0.0244632L52.1528 0.0226651ZM44.9964 4.68436C43.8164 4.68436 42.8683 5.06797 42.152 5.83518C41.6215 6.40339 41.2325 7.25212 40.9845 8.38045H40.8739L40.4207 5.02991H37.4623V20.9999H40.9263V14.4219H41.0528C41.1584 14.8606 41.3066 15.287 41.4953 15.6947C41.7884 16.3589 42.269 16.9154 42.8738 17.2909C43.5006 17.6452 44.2069 17.8215 44.9208 17.8018C46.3711 17.8018 47.4752 17.2168 48.2338 16.0475C48.9923 14.8778 49.3718 13.2456 49.3718 11.1511C49.3718 9.12818 49.0045 7.54461 48.2708 6.40039C47.5369 5.25647 46.4455 4.68436 44.9964 4.68436ZM45.3474 13.6766C44.9434 14.2826 44.3116 14.5856 43.4512 14.5856C43.0965 14.6025 42.743 14.5317 42.42 14.379C42.0969 14.2263 41.8137 13.9961 41.5937 13.7075C41.1451 13.1246 40.9217 12.3262 40.9231 11.3129V11.0768C40.9231 10.0476 41.1466 9.25975 41.5937 8.71311C42.0406 8.16647 42.6602 7.89615 43.4512 7.90215C44.327 7.90215 44.9628 8.18985 45.3599 8.76586C45.7567 9.34156 45.9549 10.1444 45.9549 11.1748C45.9575 12.2402 45.7561 13.0742 45.3509 13.6766H45.3474Z" fill="#BDBDBD"/>
<path d="M12.1039 14.3965H0.119141V17.4366H12.1039V14.3965Z" fill="#BDBDBD"/>
</g>
<defs>
<clipPath id="clip0_90_7">
<rect width="75" height="21" fill="white"/>
</clipPath>
</defs>
</svg>